<?xml version="1.0" encoding="utf-8"?>
<!-- Generator: Adobe Illustrator 15.1.0, SVG Export Plug-In . SVG Version: 6.00 Build 0)  -->
<!DOCTYPE svg PUBLIC "-//W3C//DTD SVG 1.1//EN" "http://www.w3.org/Graphics/SVG/1.1/DTD/svg11.dtd">
<svg version="1.1" id="Layer_1" xmlns="http://www.w3.org/2000/svg" xmlns:xlink="http://www.w3.org/1999/xlink" x="0px" y="0px"
	 width="252px" height="90px" viewBox="0 0 252 90" enable-background="new 0 0 252 90" xml:space="preserve">
<g>
	<path fill="#D92632" d="M113.538,72.642c-1.462,1.556-3.308,2.333-5.536,2.333c-3.086,0-5.467-1.149-7.137-3.448
		c-1.486-1.995-2.229-4.49-2.229-7.487c0-2.993,0.742-5.501,2.229-7.52c1.67-2.275,4.051-3.412,7.137-3.412
		c1.857,0,3.487,0.534,4.893,1.601c1.404,1.069,2.314,2.542,2.732,4.424h2.369c-0.302-2.483-1.464-4.48-3.482-5.99
		c-1.857-1.369-4.027-2.053-6.512-2.053c-3.736,0-6.674,1.311-8.809,3.935c-1.951,2.391-2.925,5.396-2.925,9.016
		c0,3.623,0.974,6.631,2.925,9.02c2.135,2.623,5.072,3.935,8.809,3.935c2.879,0,5.241-0.899,7.086-2.698
		c1.846-1.799,2.932-4.231,3.256-7.295h-2.367C115.742,69.298,114.931,71.176,113.538,72.642z"/>
	<path fill="#D92632" d="M135.23,73.302v-9.539c0-3.854-2.207-5.78-6.615-5.78c-2.16,0-3.854,0.476-5.084,1.427
		c-1.37,1.045-2.102,2.577-2.195,4.598h2.195c0.069-2.786,1.672-4.18,4.805-4.18c3.135,0,4.699,1.231,4.699,3.69
		c0,0.905-0.242,1.534-0.73,1.882c-0.348,0.257-1.043,0.44-2.088,0.556c-3.414,0.396-5.62,0.801-6.617,1.22
		c-2.021,0.812-3.028,2.331-3.028,4.561c0,1.718,0.592,3.04,1.775,3.97c1.066,0.856,2.484,1.288,4.249,1.288
		c1.625,0,2.959-0.314,4.004-0.939c0.857-0.534,1.705-1.44,2.543-2.716h0.068c0,1.045,0.15,1.799,0.453,2.263
		c0.369,0.579,1.078,0.869,2.123,0.869c0.512,0,0.986-0.045,1.426-0.139v-1.846c-0.23,0.094-0.463,0.141-0.693,0.141
		C135.66,74.626,135.23,74.184,135.23,73.302z M133.035,69.506c0,1.696-0.607,3.061-1.826,4.093s-2.699,1.551-4.439,1.551
		c-1.069,0-2.002-0.333-2.803-0.995c-0.801-0.66-1.201-1.513-1.201-2.558c0-1.068,0.441-1.903,1.322-2.508
		c0.697-0.44,1.764-0.788,3.204-1.045c1.277-0.209,2.555-0.405,3.83-0.592c1.043-0.184,1.66-0.452,1.846-0.799h0.068V69.506z"/>
	<path fill="#D92632" d="M147.592,57.982c-1.277,0-2.455,0.338-3.535,1.008c-1.08,0.676-1.816,1.545-2.211,2.613h-0.07v-3.099
		h-2.193V76.47h2.193V65.991c0-1.789,0.512-3.262,1.533-4.422s2.391-1.742,4.109-1.742c3.041,0,4.559,1.812,4.559,5.432V76.47h2.195
		V64.91c0-2.272-0.467-3.969-1.393-5.083C151.734,58.598,150.004,57.982,147.592,57.982z"/>
	<path fill="#D92632" d="M171.998,73.302v-9.539c0-3.854-2.203-5.78-6.615-5.78c-2.158,0-3.854,0.476-5.082,1.427
		c-1.371,1.045-2.102,2.577-2.197,4.598h2.197c0.068-2.786,1.668-4.18,4.803-4.18c3.133,0,4.699,1.231,4.699,3.69
		c0,0.905-0.242,1.534-0.729,1.882c-0.348,0.257-1.045,0.44-2.09,0.556c-3.414,0.396-5.617,0.801-6.615,1.22
		c-2.021,0.812-3.029,2.331-3.029,4.561c0,1.718,0.592,3.04,1.775,3.97c1.066,0.856,2.484,1.288,4.248,1.288
		c1.625,0,2.957-0.314,4.004-0.939c0.857-0.534,1.707-1.44,2.543-2.716h0.068c0,1.045,0.15,1.799,0.453,2.263
		c0.369,0.579,1.078,0.869,2.125,0.869c0.508,0,0.984-0.045,1.426-0.139v-1.846c-0.232,0.094-0.465,0.141-0.695,0.141
		C172.426,74.626,171.998,74.184,171.998,73.302z M169.803,69.506c0,1.696-0.607,3.061-1.826,4.093
		c-1.221,1.032-2.699,1.551-4.439,1.551c-1.068,0-2.002-0.333-2.803-0.995c-0.801-0.66-1.201-1.513-1.201-2.558
		c0-1.068,0.441-1.903,1.322-2.508c0.697-0.44,1.764-0.788,3.205-1.045c1.275-0.209,2.551-0.405,3.83-0.592
		c1.043-0.184,1.658-0.452,1.844-0.799h0.068V69.506z"/>
	<path fill="#D92632" d="M189.998,61.915h-0.068c-0.465-1.252-1.271-2.221-2.42-2.907c-1.148-0.684-2.42-1.025-3.814-1.025
		c-2.598,0-4.629,0.953-6.09,2.854c-1.324,1.72-1.986,3.936-1.986,6.653c0,2.713,0.662,4.933,1.986,6.647
		c1.461,1.903,3.492,2.856,6.09,2.856c1.348,0,2.637-0.372,3.867-1.113c1.229-0.743,2.076-1.683,2.541-2.821h0.068v3.411h2.021
		V51.611h-2.195V61.915z M188.605,72.71c-1.113,1.626-2.75,2.439-4.91,2.439c-1.949,0-3.445-0.813-4.49-2.439
		c-0.93-1.391-1.393-3.132-1.393-5.221c0-2.09,0.463-3.831,1.393-5.224c1.045-1.625,2.541-2.438,4.49-2.438
		c2.16,0,3.797,0.813,4.91,2.438c0.928,1.369,1.393,3.11,1.393,5.224C189.998,69.6,189.533,71.341,188.605,72.71z"/>
	<path fill="#D92632" d="M211.342,74.626c-0.859,0-1.287-0.442-1.287-1.324v-9.539c0-3.854-2.205-5.78-6.615-5.78
		c-2.158,0-3.855,0.476-5.084,1.427c-1.371,1.045-2.102,2.577-2.195,4.598h2.195c0.07-2.786,1.67-4.18,4.805-4.18
		c3.133,0,4.701,1.231,4.701,3.69c0,0.905-0.244,1.534-0.73,1.882c-0.35,0.257-1.047,0.44-2.09,0.556
		c-3.414,0.396-5.619,0.801-6.615,1.22c-2.021,0.812-3.029,2.331-3.029,4.561c0,1.718,0.592,3.04,1.773,3.97
		c1.068,0.856,2.486,1.288,4.248,1.288c1.625,0,2.961-0.314,4.006-0.939c0.857-0.534,1.707-1.44,2.541-2.716h0.068
		c0,1.045,0.152,1.799,0.455,2.263c0.367,0.579,1.078,0.869,2.123,0.869c0.51,0,0.986-0.045,1.428-0.139v-1.846
		C211.807,74.579,211.574,74.626,211.342,74.626z M207.861,69.506c0,1.696-0.609,3.061-1.828,4.093s-2.699,1.551-4.439,1.551
		c-1.068,0-2.002-0.333-2.803-0.995c-0.803-0.66-1.203-1.513-1.203-2.558c0-1.068,0.441-1.903,1.324-2.508
		c0.697-0.44,1.764-0.788,3.203-1.045c1.277-0.209,2.553-0.405,3.83-0.592c1.045-0.184,1.66-0.452,1.846-0.799h0.07V69.506z"/>
</g>
<g>
	<path fill="#215AA9" d="M94.535,18.685L83.663,45.639h4.299l3.056-7.891h10.478l3.093,7.891h4.285L98.302,18.685H94.535z
		 M92.378,34.112l3.918-10.03l3.781,10.03H92.378z"/>
	<polygon fill="#215AA9" points="120.991,25.722 115.82,40.364 110.584,25.722 106.396,25.722 114.076,45.639 117.542,45.639 
		124.992,25.722 	"/>
	<path fill="#215AA9" d="M141.346,42.181c-0.416,0-0.527-0.07-0.527-0.566v-9.738c0-3.051-1.309-6.688-7.541-6.688
		c-2.371,0-4.281,0.545-5.668,1.619c-1.586,1.209-2.442,2.986-2.547,5.282l-0.039,0.821h3.831l0.02-0.765
		c0.061-2.42,1.332-3.5,4.119-3.5c3.557,0,4.012,1.594,4.012,2.98c0,0.653-0.141,1.083-0.426,1.286
		c-0.084,0.064-0.463,0.279-1.756,0.423c-3.592,0.415-5.871,0.84-6.957,1.295c-2.346,0.943-3.586,2.805-3.586,5.385
		c0,2,0.713,3.572,2.108,4.666c1.227,0.987,2.852,1.489,4.828,1.489c1.795,0,3.307-0.36,4.502-1.08
		c0.574-0.356,1.143-0.856,1.699-1.492c0.09,0.305,0.207,0.565,0.352,0.787c0.533,0.829,1.484,1.252,2.832,1.252
		c0.572,0,1.117-0.056,1.619-0.16l0.623-0.131v-3.687l-1.078,0.436C141.619,42.153,141.482,42.181,141.346,42.181z M131.393,42.713
		c-0.908,0-1.682-0.272-2.359-0.832c-0.635-0.522-0.941-1.179-0.941-2.007c0-0.832,0.32-1.439,0.984-1.895
		c0.623-0.392,1.627-0.714,2.977-0.954c1.299-0.213,2.598-0.412,3.922-0.606c0.393-0.069,0.734-0.151,1.029-0.244v1.566
		c0,1.502-0.518,2.672-1.588,3.578C134.309,42.258,132.992,42.713,131.393,42.713z"/>
	<rect x="144.969" y="18.685" fill="#215AA9" width="3.813" height="26.954"/>
	<path fill="#215AA9" d="M168.789,42.181c-0.414,0-0.527-0.07-0.527-0.566v-9.738c0-3.051-1.309-6.688-7.539-6.688
		c-2.373,0-4.281,0.545-5.668,1.619c-1.586,1.209-2.443,2.986-2.549,5.282l-0.037,0.821h3.83l0.02-0.765
		c0.061-2.42,1.33-3.5,4.117-3.5c3.559,0,4.014,1.594,4.014,2.98c0,0.653-0.139,1.083-0.426,1.286
		c-0.084,0.064-0.463,0.279-1.758,0.423c-3.59,0.415-5.867,0.84-6.957,1.295c-2.344,0.943-3.586,2.805-3.586,5.385
		c0,2,0.713,3.572,2.107,4.666c1.229,0.987,2.852,1.489,4.83,1.489c1.793,0,3.305-0.36,4.504-1.08
		c0.572-0.356,1.141-0.856,1.697-1.492c0.09,0.305,0.207,0.565,0.352,0.787c0.531,0.829,1.484,1.252,2.83,1.252
		c0.572,0,1.119-0.056,1.621-0.16l0.625-0.131v-3.687l-1.082,0.436C169.064,42.153,168.928,42.181,168.789,42.181z M158.838,42.713
		c-0.91,0-1.682-0.272-2.361-0.832c-0.633-0.522-0.941-1.179-0.941-2.007c0-0.832,0.32-1.439,0.986-1.895
		c0.621-0.392,1.627-0.714,2.977-0.954c1.299-0.213,2.596-0.412,3.922-0.606c0.391-0.069,0.732-0.151,1.029-0.244v1.566
		c0,1.502-0.52,2.672-1.588,3.578C161.754,42.258,160.438,42.713,158.838,42.713z"/>
	<path fill="#215AA9" d="M181.303,25.188c-1.445,0-2.799,0.389-4.023,1.151c-0.42,0.26-0.793,0.55-1.127,0.867v-1.485h-3.811v19.917
		h3.811V34.151c0-1.641,0.449-2.947,1.369-3.993c0.895-1.018,2.072-1.512,3.604-1.512c1.662,0,3.871,0.493,3.871,4.757v12.235h3.811
		v-12.59c0-2.5-0.539-4.414-1.607-5.698C185.98,25.917,183.998,25.188,181.303,25.188z"/>
	<path fill="#215AA9" d="M204.551,38.203c-0.127,1.336-0.615,2.403-1.49,3.259c-0.863,0.844-1.865,1.252-3.061,1.252
		c-1.787,0-3.16-0.695-4.197-2.128c-0.961-1.325-1.451-2.975-1.451-4.905s0.49-3.581,1.453-4.907
		c1.035-1.429,2.408-2.127,4.195-2.127c2.455,0,3.859,1.203,4.422,3.79l0.135,0.62h3.758l-0.104-0.879
		c-0.262-2.239-1.17-4.004-2.711-5.255c-1.465-1.149-3.314-1.733-5.5-1.733c-2.936,0-5.305,1.067-7.039,3.166
		c-1.605,1.936-2.42,4.402-2.42,7.326s0.814,5.392,2.42,7.327c1.736,2.099,4.105,3.164,7.039,3.164c2.236,0,4.127-0.711,5.623-2.115
		c1.479-1.388,2.395-3.297,2.729-5.671l0.125-0.898h-3.859L204.551,38.203z"/>
	<path fill="#215AA9" d="M218.838,25.188c-1.443,0-2.797,0.389-4.023,1.151c-0.418,0.26-0.795,0.55-1.125,0.867v-8.522h-3.813
		v26.954h3.813V34.151c0-1.641,0.447-2.947,1.367-3.993c0.895-1.018,2.076-1.512,3.605-1.512c1.66,0,3.869,0.493,3.869,4.757v12.235
		h3.814v-12.59c0-2.5-0.541-4.414-1.609-5.698C223.516,25.917,221.533,25.188,218.838,25.188z"/>
	<path fill="#215AA9" d="M241.844,39.559c-0.822,2.144-2.334,3.155-4.699,3.155c-1.711,0-3.01-0.668-3.975-2.045
		c-0.697-1.001-1.115-2.208-1.24-3.598h14.047L246,36.31c0.104-2.999-0.529-5.535-1.871-7.537c-1.598-2.378-3.947-3.585-6.984-3.585
		c-2.973,0-5.314,1.125-6.961,3.343c-1.398,1.906-2.105,4.312-2.105,7.148c0,2.983,0.709,5.438,2.115,7.304
		c1.619,2.113,3.959,3.188,6.951,3.188c4.508,0,7.383-2.241,8.596-6.613H241.844z M233.486,30.387
		c0.965-1.171,2.164-1.741,3.658-1.741c1.496,0,2.68,0.558,3.625,1.705c0.756,0.916,1.205,1.99,1.361,3.262h-10.117
		C232.262,32.341,232.756,31.257,233.486,30.387z"/>
</g>
<g>
	<path fill="#215AA9" d="M47.094,13.19l-7.93,13.661c1.273,4.447,3.458,10.183,5.657,14.337
		c7.496,14.151,21.463,32.806,23.624,35.543h15.237L47.094,13.19z"/>
	<path fill="#215AA9" d="M43.886,41.437c-1.157-2.538-3.973-9.397-5.12-13.895l-3.179,5.521c0.933,3.972,3.278,8.715,5.134,12.33
		c5.359,10.44,15.467,24.318,20.819,31.338h2.196C59.134,70.247,46.268,46.664,43.886,41.437z"/>
	<path fill="#215AA9" d="M54.585,76.731h1.992c-5.75-9.329-15.11-27.304-17.118-31.709c-0.999-2.196-3.255-7.432-4.27-11.268
		l-3.258,5.658c1.071,3.905,2.993,6.925,4.586,10.028C40.983,58.143,49.02,69.24,54.585,76.731z"/>
	<path fill="#215AA9" d="M31.516,40.136L10.505,76.731h39.252c-5.719-9.684-12.639-23.545-14.385-27.378
		C34.511,47.465,32.6,43.906,31.516,40.136z"/>
</g>
</svg>
