<?xml version="1.0" encoding="utf-8"?>
<!-- Generator: Adobe Illustrator 15.1.0, SVG Export Plug-In . SVG Version: 6.00 Build 0)  -->
<!DOCTYPE svg PUBLIC "-//W3C//DTD SVG 1.1//EN" "http://www.w3.org/Graphics/SVG/1.1/DTD/svg11.dtd">
<svg version="1.1" id="Layer_1" xmlns="http://www.w3.org/2000/svg" xmlns:xlink="http://www.w3.org/1999/xlink" x="0px" y="0px"
	 width="270px" height="99.36px" viewBox="0 0 270 99.36" enable-background="new 0 0 270 99.36" xml:space="preserve">
<polygon fill="#245EAC" points="19.255,72.699 4.716,98.365 255.728,98.365 255.728,72.699 "/>
<g>
	<rect x="20.222" y="73.5" fill="none" width="242.245" height="25.088"/>
</g>
<g>
	<path fill="#E31B23" d="M123.255,64.234c-1.462,1.556-3.308,2.333-5.536,2.333c-3.086,0-5.467-1.149-7.137-3.448
		c-1.486-1.995-2.229-4.49-2.229-7.487c0-2.993,0.742-5.501,2.229-7.52c1.67-2.275,4.051-3.412,7.137-3.412
		c1.857,0,3.487,0.534,4.893,1.601c1.404,1.069,2.314,2.542,2.732,4.424h2.369c-0.302-2.483-1.464-4.48-3.482-5.99
		c-1.857-1.369-4.027-2.053-6.512-2.053c-3.736,0-6.674,1.311-8.809,3.935c-1.951,2.391-2.925,5.396-2.925,9.016
		c0,3.623,0.974,6.631,2.925,9.02c2.135,2.623,5.072,3.935,8.809,3.935c2.879,0,5.241-0.899,7.086-2.698
		c1.846-1.799,2.932-4.231,3.256-7.295h-2.367C125.459,60.891,124.648,62.769,123.255,64.234z"/>
	<path fill="#E31B23" d="M144.947,64.895v-9.539c0-3.854-2.207-5.78-6.615-5.78c-2.16,0-3.854,0.476-5.084,1.427
		c-1.37,1.045-2.102,2.577-2.195,4.598h2.195c0.069-2.786,1.672-4.18,4.805-4.18c3.135,0,4.699,1.231,4.699,3.69
		c0,0.905-0.242,1.534-0.73,1.882c-0.348,0.257-1.043,0.44-2.088,0.556c-3.414,0.396-5.62,0.801-6.617,1.22
		c-2.021,0.812-3.028,2.331-3.028,4.561c0,1.718,0.592,3.04,1.775,3.97c1.066,0.856,2.484,1.288,4.249,1.288
		c1.625,0,2.959-0.314,4.004-0.939c0.857-0.534,1.705-1.44,2.543-2.716h0.068c0,1.045,0.15,1.799,0.453,2.263
		c0.369,0.579,1.078,0.869,2.123,0.869c0.512,0,0.986-0.045,1.426-0.139v-1.846c-0.23,0.094-0.463,0.141-0.693,0.141
		C145.377,66.219,144.947,65.776,144.947,64.895z M142.752,61.099c0,1.696-0.607,3.061-1.826,4.093s-2.699,1.551-4.439,1.551
		c-1.069,0-2.002-0.333-2.803-0.995c-0.801-0.66-1.201-1.513-1.201-2.558c0-1.068,0.441-1.903,1.322-2.508
		c0.697-0.44,1.764-0.788,3.204-1.045c1.277-0.209,2.555-0.405,3.83-0.592c1.043-0.184,1.66-0.452,1.846-0.799h0.068V61.099z"/>
	<path fill="#E31B23" d="M157.309,49.575c-1.277,0-2.455,0.338-3.535,1.008c-1.08,0.676-1.816,1.545-2.211,2.613h-0.07v-3.099
		h-2.193v17.965h2.193V57.584c0-1.789,0.512-3.262,1.533-4.422s2.391-1.742,4.109-1.742c3.041,0,4.559,1.812,4.559,5.432v11.211
		h2.195v-11.56c0-2.272-0.467-3.969-1.393-5.083C161.451,50.19,159.721,49.575,157.309,49.575z"/>
	<path fill="#E31B23" d="M181.715,64.895v-9.539c0-3.854-2.203-5.78-6.615-5.78c-2.158,0-3.854,0.476-5.082,1.427
		c-1.371,1.045-2.102,2.577-2.197,4.598h2.197c0.068-2.786,1.668-4.18,4.803-4.18c3.133,0,4.699,1.231,4.699,3.69
		c0,0.905-0.242,1.534-0.729,1.882c-0.348,0.257-1.045,0.44-2.09,0.556c-3.414,0.396-5.617,0.801-6.615,1.22
		c-2.021,0.812-3.029,2.331-3.029,4.561c0,1.718,0.592,3.04,1.775,3.97c1.066,0.856,2.484,1.288,4.248,1.288
		c1.625,0,2.957-0.314,4.004-0.939c0.857-0.534,1.707-1.44,2.543-2.716h0.068c0,1.045,0.15,1.799,0.453,2.263
		c0.369,0.579,1.078,0.869,2.125,0.869c0.508,0,0.984-0.045,1.426-0.139v-1.846c-0.232,0.094-0.465,0.141-0.695,0.141
		C182.143,66.219,181.715,65.776,181.715,64.895z M179.52,61.099c0,1.696-0.607,3.061-1.826,4.093
		c-1.221,1.032-2.699,1.551-4.439,1.551c-1.068,0-2.002-0.333-2.803-0.995c-0.801-0.66-1.201-1.513-1.201-2.558
		c0-1.068,0.441-1.903,1.322-2.508c0.697-0.44,1.764-0.788,3.205-1.045c1.275-0.209,2.551-0.405,3.83-0.592
		c1.043-0.184,1.658-0.452,1.844-0.799h0.068V61.099z"/>
	<path fill="#E31B23" d="M199.715,53.508h-0.068c-0.465-1.252-1.271-2.221-2.42-2.907c-1.148-0.684-2.42-1.025-3.814-1.025
		c-2.598,0-4.629,0.953-6.09,2.854c-1.324,1.72-1.986,3.936-1.986,6.653c0,2.713,0.662,4.933,1.986,6.647
		c1.461,1.903,3.492,2.856,6.09,2.856c1.348,0,2.637-0.372,3.867-1.113c1.229-0.743,2.076-1.683,2.541-2.821h0.068v3.411h2.021
		V43.204h-2.195V53.508z M198.322,64.303c-1.113,1.626-2.75,2.439-4.91,2.439c-1.949,0-3.445-0.813-4.49-2.439
		c-0.93-1.391-1.393-3.132-1.393-5.221c0-2.09,0.463-3.831,1.393-5.224c1.045-1.625,2.541-2.438,4.49-2.438
		c2.16,0,3.797,0.813,4.91,2.438c0.928,1.369,1.393,3.11,1.393,5.224C199.715,61.192,199.25,62.934,198.322,64.303z"/>
	<path fill="#E31B23" d="M221.059,66.219c-0.859,0-1.287-0.442-1.287-1.324v-9.539c0-3.854-2.205-5.78-6.615-5.78
		c-2.158,0-3.855,0.476-5.084,1.427c-1.371,1.045-2.102,2.577-2.195,4.598h2.195c0.07-2.786,1.67-4.18,4.805-4.18
		c3.133,0,4.701,1.231,4.701,3.69c0,0.905-0.244,1.534-0.73,1.882c-0.35,0.257-1.047,0.44-2.09,0.556
		c-3.414,0.396-5.619,0.801-6.615,1.22c-2.021,0.812-3.029,2.331-3.029,4.561c0,1.718,0.592,3.04,1.773,3.97
		c1.068,0.856,2.486,1.288,4.248,1.288c1.625,0,2.961-0.314,4.006-0.939c0.857-0.534,1.707-1.44,2.541-2.716h0.068
		c0,1.045,0.152,1.799,0.455,2.263c0.367,0.579,1.078,0.869,2.123,0.869c0.51,0,0.986-0.045,1.428-0.139v-1.846
		C221.523,66.172,221.291,66.219,221.059,66.219z M217.578,61.099c0,1.696-0.609,3.061-1.828,4.093s-2.699,1.551-4.439,1.551
		c-1.068,0-2.002-0.333-2.803-0.995c-0.803-0.66-1.203-1.513-1.203-2.558c0-1.068,0.441-1.903,1.324-2.508
		c0.697-0.44,1.764-0.788,3.203-1.045c1.277-0.209,2.553-0.405,3.83-0.592c1.045-0.184,1.66-0.452,1.846-0.799h0.07V61.099z"/>
</g>
<g>
	<path fill="#245EAC" d="M104.252,10.277L93.38,37.231h4.299l3.056-7.891h10.478l3.093,7.891h4.285L108.02,10.277H104.252z
		 M102.096,25.705l3.918-10.03l3.781,10.03H102.096z"/>
	<polygon fill="#245EAC" points="130.708,17.315 125.537,31.957 120.302,17.315 116.113,17.315 123.793,37.231 127.26,37.231 
		134.709,17.315 	"/>
	<path fill="#245EAC" d="M151.063,33.774c-0.416,0-0.527-0.07-0.527-0.566V23.47c0-3.051-1.309-6.688-7.541-6.688
		c-2.371,0-4.281,0.545-5.668,1.619c-1.586,1.209-2.442,2.986-2.547,5.282l-0.039,0.821h3.831l0.02-0.765
		c0.061-2.42,1.332-3.5,4.119-3.5c3.556,0,4.011,1.594,4.011,2.98c0,0.653-0.141,1.083-0.426,1.286
		c-0.084,0.064-0.463,0.279-1.756,0.423c-3.591,0.415-5.871,0.84-6.957,1.295c-2.346,0.943-3.586,2.805-3.586,5.385
		c0,2,0.713,3.572,2.108,4.666c1.227,0.987,2.852,1.489,4.828,1.489c1.795,0,3.307-0.36,4.501-1.08
		c0.574-0.356,1.143-0.856,1.699-1.492c0.09,0.305,0.207,0.565,0.352,0.787c0.533,0.829,1.484,1.252,2.832,1.252
		c0.572,0,1.117-0.056,1.619-0.16l0.623-0.131v-3.687l-1.078,0.436C151.336,33.746,151.199,33.774,151.063,33.774z M141.11,34.306
		c-0.908,0-1.682-0.272-2.359-0.832c-0.635-0.522-0.941-1.179-0.941-2.007c0-0.832,0.32-1.439,0.984-1.895
		c0.623-0.392,1.627-0.714,2.977-0.954c1.299-0.213,2.598-0.412,3.921-0.606c0.393-0.069,0.734-0.151,1.029-0.244v1.566
		c0,1.502-0.518,2.672-1.588,3.578C144.026,33.851,142.709,34.306,141.11,34.306z"/>
	<rect x="154.686" y="10.277" fill="#245EAC" width="3.813" height="26.954"/>
	<path fill="#245EAC" d="M178.506,33.774c-0.414,0-0.527-0.07-0.527-0.566V23.47c0-3.051-1.309-6.688-7.539-6.688
		c-2.373,0-4.281,0.545-5.668,1.619c-1.586,1.209-2.443,2.986-2.549,5.282l-0.037,0.821h3.83l0.02-0.765
		c0.061-2.42,1.33-3.5,4.117-3.5c3.559,0,4.014,1.594,4.014,2.98c0,0.653-0.139,1.083-0.426,1.286
		c-0.084,0.064-0.463,0.279-1.758,0.423c-3.59,0.415-5.867,0.84-6.957,1.295c-2.344,0.943-3.586,2.805-3.586,5.385
		c0,2,0.713,3.572,2.107,4.666c1.229,0.987,2.852,1.489,4.83,1.489c1.793,0,3.305-0.36,4.504-1.08
		c0.572-0.356,1.141-0.856,1.697-1.492c0.09,0.305,0.207,0.565,0.352,0.787c0.531,0.829,1.484,1.252,2.83,1.252
		c0.572,0,1.119-0.056,1.621-0.16l0.625-0.131v-3.687l-1.082,0.436C178.781,33.746,178.645,33.774,178.506,33.774z M168.555,34.306
		c-0.91,0-1.682-0.272-2.361-0.832c-0.633-0.522-0.941-1.179-0.941-2.007c0-0.832,0.32-1.439,0.986-1.895
		c0.621-0.392,1.627-0.714,2.977-0.954c1.299-0.213,2.596-0.412,3.922-0.606c0.391-0.069,0.732-0.151,1.029-0.244v1.566
		c0,1.502-0.52,2.672-1.588,3.578C171.471,33.851,170.154,34.306,168.555,34.306z"/>
	<path fill="#245EAC" d="M191.02,16.781c-1.445,0-2.799,0.389-4.023,1.151c-0.42,0.26-0.793,0.55-1.127,0.867v-1.485h-3.811v19.917
		h3.811V25.744c0-1.641,0.449-2.947,1.369-3.993c0.895-1.018,2.072-1.512,3.604-1.512c1.662,0,3.871,0.493,3.871,4.757v12.235h3.811
		v-12.59c0-2.5-0.539-4.414-1.607-5.698C195.697,17.51,193.715,16.781,191.02,16.781z"/>
	<path fill="#245EAC" d="M214.268,29.795c-0.127,1.336-0.615,2.403-1.49,3.259c-0.863,0.844-1.865,1.252-3.061,1.252
		c-1.787,0-3.16-0.695-4.197-2.128c-0.961-1.325-1.451-2.975-1.451-4.905s0.49-3.581,1.453-4.907
		c1.035-1.429,2.408-2.127,4.195-2.127c2.455,0,3.859,1.203,4.422,3.79l0.135,0.62h3.758l-0.104-0.879
		c-0.262-2.239-1.17-4.004-2.711-5.255c-1.465-1.149-3.314-1.733-5.5-1.733c-2.936,0-5.305,1.067-7.039,3.166
		c-1.605,1.936-2.42,4.402-2.42,7.326s0.814,5.392,2.42,7.327c1.736,2.099,4.105,3.164,7.039,3.164c2.236,0,4.127-0.711,5.623-2.115
		c1.479-1.388,2.395-3.297,2.729-5.671l0.125-0.898h-3.859L214.268,29.795z"/>
	<path fill="#245EAC" d="M228.555,16.781c-1.443,0-2.797,0.389-4.023,1.151c-0.418,0.26-0.795,0.55-1.125,0.867v-8.522h-3.813
		v26.954h3.813V25.744c0-1.641,0.447-2.947,1.367-3.993c0.895-1.018,2.076-1.512,3.605-1.512c1.66,0,3.869,0.493,3.869,4.757v12.235
		h3.814v-12.59c0-2.5-0.541-4.414-1.609-5.698C233.232,17.51,231.25,16.781,228.555,16.781z"/>
	<path fill="#245EAC" d="M251.561,31.151c-0.822,2.144-2.334,3.155-4.699,3.155c-1.711,0-3.01-0.668-3.975-2.045
		c-0.697-1.001-1.115-2.208-1.24-3.598h14.047l0.023-0.761c0.104-2.999-0.529-5.535-1.871-7.537
		c-1.598-2.378-3.947-3.585-6.984-3.585c-2.973,0-5.314,1.125-6.961,3.343c-1.398,1.906-2.105,4.312-2.105,7.148
		c0,2.983,0.709,5.438,2.115,7.304c1.619,2.113,3.959,3.188,6.951,3.188c4.508,0,7.383-2.241,8.596-6.613H251.561z M243.203,21.979
		c0.965-1.171,2.164-1.741,3.658-1.741c1.496,0,2.68,0.558,3.625,1.705c0.756,0.916,1.205,1.99,1.361,3.262H241.73
		C241.979,23.934,242.473,22.85,243.203,21.979z"/>
</g>
<g>
	<path fill="#245EAC" d="M56.812,4.783l-7.93,13.661c1.273,4.447,3.458,10.183,5.657,14.337
		c7.496,14.151,21.463,32.806,23.624,35.543H93.4L56.812,4.783z"/>
	<path fill="#245EAC" d="M53.604,33.029c-1.157-2.538-3.973-9.397-5.12-13.895l-3.179,5.521c0.933,3.972,3.278,8.715,5.134,12.33
		c5.359,10.44,15.467,24.318,20.819,31.338h2.196C68.851,61.84,55.985,38.256,53.604,33.029z"/>
	<path fill="#245EAC" d="M64.303,68.324h1.992c-5.75-9.329-15.11-27.304-17.118-31.709c-0.999-2.196-3.255-7.432-4.27-11.268
		l-3.258,5.658c1.071,3.905,2.993,6.925,4.586,10.028C50.7,49.735,58.737,60.833,64.303,68.324z"/>
	<path fill="#245EAC" d="M41.233,31.729L20.222,68.324h39.252c-5.719-9.684-12.639-23.545-14.385-27.378
		C44.229,39.058,42.317,35.499,41.233,31.729z"/>
</g>
<g>
	<rect x="37.774" y="77.02" fill="none" width="199.14" height="20.176"/>
	<path fill="#FFFFFF" d="M70.134,77.018h2.52l6.697,17.137H76.83l-1.872-5.16h-7.249l-1.92,5.16h-2.352L70.134,77.018z
		 M68.429,87.074h5.809l-2.856-7.992h-0.048L68.429,87.074z"/>
	<path fill="#FFFFFF" d="M91.542,82.033c-0.264-2.447-1.896-3.504-4.249-3.504c-1.92,0-3.84,0.695-3.84,2.928
		c0,2.113,2.736,2.426,5.497,3.049c2.736,0.625,5.472,1.584,5.472,4.945c0,3.648-3.576,5.111-6.696,5.111
		c-3.84,0-7.081-1.871-7.081-6.049h2.16c0,2.881,2.4,4.129,4.992,4.129c2.064,0,4.345-0.648,4.345-3.121
		c0-2.352-2.736-2.76-5.473-3.359s-5.497-1.393-5.497-4.537c0-3.479,3.096-5.016,6.217-5.016c3.504,0,6.168,1.656,6.313,5.424
		H91.542z"/>
	<path fill="#FFFFFF" d="M101.669,78.938h-5.712v-1.92h13.706v1.92h-5.713v15.217h-2.28V78.938z"/>
	<path fill="#FFFFFF" d="M119.428,77.018h7.513c3.408,0,5.256,1.896,5.256,5.064s-1.848,5.088-5.256,5.064h-5.232v7.008h-2.28
		V77.018z M121.708,85.227h4.464c2.568,0.023,3.744-1.105,3.744-3.145c0-2.041-1.176-3.145-3.744-3.145h-4.464V85.227z"/>
	<path fill="#FFFFFF" d="M135.172,81.746h1.921v2.615h0.048c0.983-1.992,2.352-2.977,4.561-2.904v2.16
		c-3.289,0-4.489,1.873-4.489,5.018v5.52h-2.04V81.746z"/>
	<path fill="#FFFFFF" d="M148.757,81.457c3.937,0,6.024,2.857,6.024,6.506c0,3.623-2.088,6.48-6.024,6.48s-6.024-2.857-6.024-6.48
		C142.732,84.314,144.82,81.457,148.757,81.457z M148.757,92.643c2.136,0,3.864-1.68,3.864-4.68c0-3.025-1.729-4.705-3.864-4.705
		c-2.137,0-3.864,1.68-3.864,4.705C144.893,90.963,146.62,92.643,148.757,92.643z"/>
	<path fill="#FFFFFF" d="M163.373,94.154h-2.185l-4.608-12.408h2.28l3.48,10.344h0.048l3.385-10.344h2.136L163.373,94.154z"/>
	<path fill="#FFFFFF" d="M172.54,79.514h-2.04v-2.496h2.04V79.514z M170.5,81.746h2.04v12.408h-2.04V81.746z"/>
	<path fill="#FFFFFF" d="M187.397,94.154h-2.04v-1.68h-0.048c-0.672,1.367-2.257,1.969-3.961,1.969
		c-3.816,0-5.712-3.025-5.712-6.529s1.872-6.457,5.664-6.457c1.272,0,3.097,0.48,4.009,1.945h0.048v-6.385h2.04V94.154z
		 M181.637,92.643c2.736,0,3.793-2.352,3.793-4.68c0-2.449-1.104-4.705-3.913-4.705c-2.784,0-3.72,2.377-3.72,4.801
		C177.797,90.387,178.997,92.643,181.637,92.643z"/>
	<path fill="#FFFFFF" d="M201.725,90.219c-0.552,2.736-2.521,4.225-5.305,4.225c-3.96,0-5.832-2.736-5.952-6.529
		c0-3.721,2.448-6.457,5.832-6.457c4.393,0,5.736,4.105,5.617,7.105h-9.289c-0.072,2.16,1.152,4.08,3.864,4.08
		c1.68,0,2.856-0.816,3.216-2.424H201.725z M199.757,86.762c-0.097-1.943-1.561-3.504-3.577-3.504c-2.136,0-3.408,1.607-3.552,3.504
		H199.757z"/>
	<path fill="#FFFFFF" d="M204.555,81.746h1.921v2.615h0.048c0.983-1.992,2.352-2.977,4.561-2.904v2.16
		c-3.289,0-4.489,1.873-4.489,5.018v5.52h-2.04V81.746z"/>
</g>
<path fill="#245EAC" d="M3.951,96.132"/>
<path fill="#245EAC" d="M56.812,4.783"/>
</svg>
