<svg xmlns="http://www.w3.org/2000/svg" viewBox="9 0 90 90"><g fill="#245EAC"><path d="M51.774 12.863l-7.93 13.661c1.273 4.447 3.458 10.183 5.657 14.337 7.496 14.151 21.463 32.806 23.624 35.543h15.237L51.774 12.863z"/><path d="M48.566 41.11c-1.157-2.538-3.973-9.397-5.12-13.895l-3.179 5.521c.933 3.972 3.278 8.715 5.134 12.33 5.359 10.44 15.467 24.318 20.819 31.338h2.196c-4.602-6.484-17.468-30.067-19.85-35.294z"/><path d="M59.266 76.405h1.992c-5.75-9.329-15.11-27.304-17.118-31.709-.999-2.196-3.255-7.432-4.27-11.268l-3.258 5.658c1.071 3.905 2.993 6.925 4.586 10.028 4.465 8.702 12.502 19.8 18.068 27.291zM36.196 39.81L15.185 76.405h39.252c-5.719-9.684-12.639-23.545-14.385-27.378-.861-1.889-2.772-5.447-3.856-9.217z"/></g></svg>