<?xml version="1.0" encoding="UTF-8"?>
<svg version="1.1"
  xmlns="http://www.w3.org/2000/svg" fill="black" viewBox="15 15 762 762" style="enable-background:new 0 0 792 792">

  <path fill="white" d="M381.47461 30.886719c-77.925-.1375-155.875 25.6125-219.875 77.312501v51.60156h-51.90039C5.0992188 287.90078 4.8992188 472.8 109.19922 601h51.60156v51.59961c128.2 104.1 312.5 104.1 440.5 0V600.80078h51.5c104.1-128 104.1-312.30078 0-440.30078h-51.60156v-51.59961c-63.9-51.849999-141.79961-77.876171-219.72461-78.013671z" transform="translate(15 15)" />
  <path d="M396.1 15.1c-210.3 0-380.7 170.4-380.7 380.7s170.4 380.7 380.7 380.7 380.6-170.4 380.6-380.7S606.3 15.1 396.1 15.1zM616.3 616v51.6c-128 104.1-312.3 104.1-440.5 0V616h-51.6c-104.3-128.2-104.1-313.1.5-441.2h51.9v-51.6c128-103.4 311.8-103 439.6.7v51.6h51.6c104.1 128 104.1 312.3 0 440.3h-51.5v.2z" style="opacity:.4;fill:black;enable-background:new"/>
  <path fill="black" d="M242.4 288c11.2-11 22.5-21.9 33.6-33 37.6-37.5 75.1-75.1 112.6-112.7 5.7-5.7 5.9-5.7 11.5-.1 59.7 59.8 119.3 119.5 179 179.3 2.7 2.7 5.5 5.8 3.7 9.7-1.3 2.7-4 5.4-6.7 6.7-3.8 1.7-6.9-1-9.7-3.7-18.5-18.6-37.1-37.1-55.6-55.7-18.2-18.2-36.4-36.4-54.5-54.7-2.8-2.8-4.7-3.5-8.4-1-24.5 16-49.2 31.6-73.8 47.5-2.4 1.5-4 1.6-6.4.1-12.9-8.1-26.1-15.8-38.9-24.1-3.8-2.5-6.4-2-9.8 0-24.4 14-48.9 27.8-73.3 41.7-.8.4-1.6.8-2.3 1.2-.4-.6-.7-.9-1-1.2z" />
  <g >
    <g >
      <path fill="white" d="M123.8 395.9c2.3 3.3 3.7 6.1 5.8 8.3 29.5 29.7 59.1 59.2 88.7 88.8 56.4 56.5 112.8 113 169.1 169.5 4.8 4.8 6.9 4.9 12.6 1.3 1.5-.9 2.9-2.1 4.1-3.3 7-6.9 14-13.7 21-20.7 78.2-78.3 156.4-156.7 234.7-235 5.8-5.8 6.8-8.8.4-16.7-1-1.2-2.2-2.3-3.3-3.5L539.5 267.2c-44.4-44.6-88.8-89.2-133.3-133.7-10.5-10.5-12.4-10.3-23 .3-38.6 38.6-77.2 77.1-115.7 115.8-27.7 27.8-55.2 55.8-82.9 83.6-18.1 18.1-36.5 35.8-54.6 53.9-2.3 2.3-3.9 5.4-6.2 8.8z" />
      <path d="M123.8 395.9c2.3-3.4 3.9-6.5 6.2-8.9 18.1-18 36.5-35.8 54.6-53.9 27.7-27.8 55.2-55.8 82.9-83.6 38.5-38.6 77.1-77.2 115.7-115.8 10.6-10.6 12.5-10.7 23-.3 44.5 44.5 88.9 89 133.3 133.6 39.1 39.2 78.3 78.3 117.4 117.4 1.1 1.1 2.3 2.2 3.3 3.5 6.4 7.9 5.5 10.9-.4 16.7-78.3 78.2-156.5 156.6-234.7 235-6.9 6.9-13.9 13.8-21 20.7-1.3 1.2-2.6 2.4-4.1 3.3-5.8 3.6-7.9 3.4-12.6-1.3-56.3-56.4-112.7-112.9-169-169.3-29.6-29.6-59.2-59.2-88.7-88.8-2.1-2.2-3.6-5-5.9-8.3zm13.5.3c1.3 1.5 2 2.3 2.8 3.1 44.9 44.9 89.8 89.9 134.6 134.8 38.6 38.7 77.3 77.4 115.8 116.1 3 3 5 3.6 8.3.3 83.5-83.7 167.1-167.4 250.7-251 .8-.8 1.4-1.8 2.5-3.3H137.3zM242.8 288c.3.3.5.7.8 1 .8-.4 1.6-.8 2.3-1.2 24.4-13.9 48.9-27.7 73.3-41.7 3.5-2 6-2.5 9.8 0 12.8 8.3 26 16 38.9 24.1 2.5 1.5 4.1 1.5 6.4-.1 24.6-15.9 49.3-31.5 73.8-47.5 3.7-2.4 5.7-1.7 8.4 1 18.1 18.3 36.3 36.5 54.5 54.7 18.5 18.6 37.1 37.1 55.6 55.7 2.7 2.7 5.9 5.4 9.7 3.7 2.7-1.2 5.4-3.9 6.7-6.7 1.8-3.8-1-7-3.7-9.7-59.7-59.8-119.3-119.5-179-179.3-5.6-5.6-5.8-5.5-11.5.1-37.5 37.6-75 75.2-112.6 112.7-10.9 11.3-22.2 22.2-33.4 33.2z" />
      <path fill="white" d="M242.8 288c11.2-11 22.5-21.9 33.6-33 37.6-37.5 75.1-75.1 112.6-112.7 5.7-5.7 5.9-5.7 11.5-.1 59.7 59.8 119.3 119.5 179 179.3 2.7 2.7 5.5 5.8 3.7 9.7-1.3 2.7-4 5.4-6.7 6.7-3.8 1.7-6.9-1-9.7-3.7-18.5-18.6-37.1-37.1-55.6-55.7-18.2-18.2-36.4-36.4-54.5-54.7-2.8-2.8-4.7-3.5-8.4-1-24.5 16-49.2 31.6-73.8 47.5-2.4 1.5-4 1.6-6.4.1-12.9-8.1-26.1-15.8-38.9-24.1-3.8-2.5-6.4-2-9.8 0-24.4 14-48.9 27.8-73.3 41.7-.8.4-1.6.8-2.3 1.2-.4-.6-.7-.9-1-1.2z" />
    </g>
    <g >
      <circle fill="black" cx="394.2" cy="498.4" r="73.1" />
      <circle fill="white" cx="395.4" cy="463.1" r="9" />
      <path fill="white" d="M376.6 477.8v6.5h10.2v46.8h-10.2v7.4h36.3v-6.7h-8.6v-54z"/>
    </g>
  </g>
</svg>