<svg xmlns="http://www.w3.org/2000/svg" xml:space="preserve" viewBox="399 12 555 560">
  <path fill="#FFF" d="M875 437h-37v37c-90 73-221 73-311 0v-37h-37c-74-91-74-221 0-312h37V89c91-74 221-73 311 0v37h36c74 90 74 221 1 311z" opacity=".6"/>
  <path fill="#2B2F33" d="M682 12a269 269 0 1 0 0 538 269 269 0 0 0 0-538zm156 425v37c-90 73-221 73-311 0v-37h-37c-74-91-74-221 0-312h37V89c91-74 221-73 311 0v37h36c74 90 74 220 0 311h-36z" opacity=".4"/>
  <polyline fill="none" stroke="#2B2F33" stroke-miterlimit="10" stroke-width="35.8" points="770 263 843 378 522 378 682 126 712 172" opacity=".4"/>
  <path fill="#2B2F33" stroke="#FFF" stroke-miterlimit="10" stroke-width="1.1" d="m758 141 74 14c3 1 5 4 5 7l-20 73c-1 4-6 4-9 1l-54-88c-2-3 0-8 4-7z" opacity=".4"/>
  <path fill="#2B2F33" d="m792 208-117 73c-2 1-5 0-6-2l-15-23c-1-3 0-5 2-7l116-72c2-1 5-1 7 1l14 24c2 2 1 5-1 6z" opacity=".4"/>
</svg>