<?xml version="1.0" encoding="utf-8"?>
<svg xmlns="http://www.w3.org/2000/svg" xml:space="preserve" viewBox="319 19 961 961">
	<g>
		<path fill="#FFF" stroke="#000" stroke-miterlimit="10" d="M1143 778h-65v65a442 442 0 0 1-556 0v-65h-65a442 442 0 0 1 0-557h66v-65a442 442 0 0 1 555 0v66h65a441 441 0 0 1 0 556z"/>
		<path fill="#2C3034" d="M800 19a481 481 0 0 0-481 481 481 481 0 1 0 962 0A481 481 0 0 0 800 19zm278 759v65a442 442 0 0 1-556 0v-65h-65a442 442 0 0 1 0-557h66v-65a442 442 0 0 1 555 0v66h65a441 441 0 0 1 0 556h-65z" opacity=".4"/>
		<path fill="#FFF" d="m456 500 7 10 112 112 214 214c6 7 8 7 16 2l5-4 26-26 297-297c7-7 8-11 0-21l-4-4-148-149-169-168c-13-14-15-13-29 0L637 315 533 421l-69 68-8 11z"/>
		<path fill="#010101" d="m456 500 8-11 69-68 104-106 146-146c14-14 16-14 29-1l169 169 148 148 4 5c8 10 7 14 0 21L836 808a2191 2191 0 0 1-31 30c-8 4-10 4-16-2L575 623 463 510l-7-10zm17 0 3 4a212902 212902 0 0 1 170 170l147 147c3 4 6 5 10 0a375319 375319 0 0 1 317-317l3-4H473zm133-136 1 1 3-2 93-52c4-3 7-3 12 0l49 30c3 2 5 2 8 0l93-60c5-3 8-2 11 1l69 69 70 71c3 3 7 7 12 4 4-1 7-5 9-8 2-5-2-9-5-12L805 179c-7-7-7-7-14 0L648 322l-42 42z"/>
		<path fill="#FFF" d="M473 500h650l-3 4-317 317c-4 5-7 4-10 0L647 674 477 504l-4-4zm351 174c-3-10 3-14 9-18l4-2a68 68 0 1 0-76-114 68 68 0 0 0-30 55c0 5 1 8 7 7h41v-5c0-10 6-19 15-21a21 21 0 0 1 25 12c4 8 1 18-7 24l-14 10a49 49 0 0 0-22 52h48zm4 41a29 29 0 0 0-29-29 30 30 0 0 0-30 29 30 30 0 0 0 30 30c16 0 29-13 29-30z"/>
		<path fill="#FFF" d="m606 364 43-42 142-142c7-8 7-8 14-1l226 227c4 3 7 7 5 12-2 4-5 7-9 9s-8-2-12-5l-70-70-69-69c-3-4-6-5-10-2-31 21-62 40-94 60-3 2-5 2-8 0l-49-30c-5-3-8-2-12 0l-93 53-3 1-1-1z"/>
	</g>
</svg>