<?xml version="1.0" encoding="utf-8"?>
<svg xmlns="http://www.w3.org/2000/svg" xml:space="preserve" width="961.2" height="961.4" viewBox="319.4 19.1 961.2 961.4">
	<g>
		<path fill="#FFF" d="M1143.2 777.8H1078v65.1a441.5 441.5 0 0 1-556.2 0v-65.1h-65.1a441.6 441.6 0 0 1 .6-557H523v-65.2a441.8 441.8 0 0 1 555 .8v65.2h65.2a441 441 0 0 1 0 556.2z" opacity=".6"/>
		<path fill="#2C3034" d="M800.1 19a480.6 480.6 0 0 0-480.7 480.7 480.6 480.6 0 1 0 961.3 0A480.6 480.6 0 0 0 800 19.1zm278 758.8v65.1a441.5 441.5 0 0 1-556.1 0v-65.1h-65.2a441.6 441.6 0 0 1 .6-557H523v-65.2a441.8 441.8 0 0 1 555 .8v65.2h65.2a441.2 441.2 0 0 1 0 556h-65v.2z" opacity=".4"/>
		<path fill="#FFF" d="M455.8 499.9c3 4.1 4.7 7.7 7.3 10.5 37.3 37.5 74.7 74.7 112 112l213.5 214c6.1 6.2 8.7 6.3 16 1.7 1.8-1.1 3.6-2.6 5.1-4.1 8.9-8.7 17.7-17.3 26.5-26.2l296.4-296.7c7.3-7.3 8.6-11.1.5-21-1.3-1.6-2.8-3-4.2-4.5L980.7 337.4c-56-56.3-112.1-112.7-168.3-168.8-13.3-13.3-15.7-13-29 .3-48.8 48.8-97.5 97.4-146.2 146.3-35 35-69.6 70.4-104.6 105.5-22.9 22.9-46.1 45.2-69 68-2.9 3-4.9 6.9-7.8 11.2z"/>
	</g>
	<g>
		<g>
			<g>
				<g>
					<path d="M1221.7 382.4c-3.8 0-7.7.8-11.6 1.6a63.2 63.2 0 0 0-119.9-4.5c-7-3.4-14.7-5.5-22.4-5.5a52.8 52.8 0 0 0-35.7 14L806 161.6a11 11 0 0 0-15.4 0L459.7 492.6a10.9 10.9 0 0 0 .2 15.4l330.8 330.8a11 11 0 0 0 15.4 0l330.8-330.9c2-2 3.1-4.8 3.1-7.6h81.6a59 59 0 0 0 0-117.9z"/>
				</g>
				<g>
					<path fill="#50B748" d="M473.3 501.1c0 1 .4 2 1.1 2.7L790.7 820l.1-318.8H473.3z"/>
					<path fill="#EC1C24" d="M804.6 501.1v318.6l316.2-315.9c.8-.7 1.1-1.7 1.2-2.7H804.6z"/>
				</g>
				<path fill="#FFF" d="M1221.7 390.2a51 51 0 0 0-13.3 1.8l-3.8 1-1-3.9a55.6 55.6 0 0 0-54.2-42.6c-24.6 0-46 15.8-53.3 39.2l-1.5 4.7-4.2-2.5a45 45 0 0 0-61.2 15.8l-36.1-36.1-127.2-127.3-45.5-45.5-10.9-10.8-8.2-8.3a4.4 4.4 0 0 0-6.1 0L789 182 603.3 367.6l105.8-60 77.3 36.4 58-44.1 144.8 144.7c4.9 5.6 9.8 10.7 12.7 13.5l3.3 3.3c10.8 10.9 31 31.1 53.7 31.1h162.7a51.2 51.2 0 0 0 0-102.3z"/>
				<g>
					<path d="M862.6 286.1 1036.7 460a6 6 0 1 0 8.5-8.5l-173-173-9.6 7.6z"/>
				</g>
				<path d="M1148.5 438.2c-1.4-9.4-6.7-18-17.6-23.3a46 46 0 0 0-32-2 33.7 33.7 0 0 0-18.7 15c-.2.5 0 1.2.4 1.5.4.3 1 .2 1.4-.2a37.2 37.2 0 0 1 42.5-7.3c15 7.3 21.5 19.8 19 38.7 0 .5.3 1 .8 1.1.5.2 1 0 1.3-.5a38.3 38.3 0 0 0 3-23z"/>
			</g>
			<g>
				<path d="M771.2 536.8c2 3.9-16.4 17-40 40.6-26.6 26.6-59.2 64-64 67-5.3 3.4-12.3.9-14.5-2.5a943.3 943.3 0 0 1-26.5-44.5c0-3.4 2-6.5 6-9.3 3.9-3 8-6.8 11.6-5 1.1.6 17.1 27.9 21.5 27.8 8.7-.2 71.9-78.3 84.3-79.5 2.8-.3 18-1.8 21.6 5.4z"/>
			</g>
			<g>
				<path d="M956.5 545.1c.5 5.2-10.6 16.3-17.8 24-7.3 7.7-15.4 17.8-22 25.8a1302 1302 0 0 0 35.5 34.3c-1 3.4-5 7.7-7 8-.8.6-8.8 11.8-17.4 9.8 0 0-12.2-9-16.7-13.7-4.4-4.7-12.4-11.3-16.7-16.4-6 7.1-27.4 26.8-32 33 0 0-7 2.6-16.5-7.2-1.5-1.6-2.9-3.3-4-5.2.3-1-6.4-8-2-12.7 5.6-5.7 27.3-25.8 33.8-32.6-6-8-33-42.7-31.3-48.3 1.2-3.4 13.6-9.8 16-10.3l7-1.7c2.8 1.5 26.8 32.4 30.8 36.8 7.5-8 31-33.4 39.5-40.1 1.9.7 3.6 1.5 5.1 2.6 1.5 1 10.8 9 10.8 9l4.9 5z"/>
			</g>
			<g transform="translate(-259.64645,-264.84375)">
				<path fill="#FFF" d="M1283.2 430.2a16 16 0 0 0-16.2 16.1v111.8a26.6 26.6 0 1 0 32.2 0V446.3a16 16 0 0 0-16-16.1z"/>
				<g transform="translate(-232.16103,4.7661891)">
					<path fill="#EC1C24" d="M1499.3 452.2v100.9a26.6 26.6 0 1 0 32.2 0V452.2h-32.2z"/>
				</g>
				<path fill="none" stroke="#000" stroke-linejoin="bevel" stroke-width="2" d="M1283.2 430.2a16 16 0 0 0-16.2 16.1v111.8a26.6 26.6 0 1 0 32.2 0V446.3a16 16 0 0 0-16-16.1z"/>
				<path fill="none" stroke="#000" stroke-width="1.5" d="M1266.9 535.7h19.4"/>
				<path fill="none" stroke="#000" stroke-width="1.5" d="M1266.9 508.6h19.4"/>
				<path fill="none" stroke="#000" stroke-width="1.5" d="M1266.9 481.4h19.4"/>
			</g>
			<g transform="translate(-259.64645,-264.84375)">
				<path fill="#FFF" d="M824.6 429.7c-9 0-16.3 7.3-16.3 16.4v113.2a27 27 0 1 0 32.6 0V446c0-9-7.2-16.3-16.3-16.3z"/>
				<g transform="translate(-232.16103,4.7661891)">
					<path fill="#EC1C24" d="M1040.6 517.2V554.4a27 27 0 1 0 32.6 0V517.2h-32.6z"/>
				</g>
				<path fill="none" stroke="#000" stroke-linejoin="bevel" stroke-width="2" d="M824.6 429.7c-9 0-16.3 7.3-16.3 16.4v113.2a27 27 0 1 0 32.6 0V446c0-9-7.2-16.3-16.3-16.3z"/>
				<path fill="none" stroke="#000" stroke-width="1.5" d="M808.2 536.7h19.7"/>
				<path fill="none" stroke="#000" stroke-width="1.5" d="M808.2 509.2h19.7"/>
				<path fill="none" stroke="#000" stroke-width="1.5" d="M808.2 481.7h19.7"/>
			</g>
			<polygon points="1081.6 179.8 1065 216.5 1078.3 216.5 1078.3 275.4 1084.8 275.4 1084.8 216.5 1098.2 216.5"/>
			<polygon points="504.1 325.3 520.7 288.6 507.4 288.6 507.4 229.7 500.9 229.7 500.9 288.6 487.5 288.6"/>
		</g>
	</g>
</svg>