<?xml version="1.0" encoding="utf-8"?>
<!-- Generator: Adobe Illustrator 19.2.1, SVG Export Plug-In . SVG Version: 6.00 Build 0)  -->
<svg version="1.1" id="Layer_1" xmlns="http://www.w3.org/2000/svg" xmlns:xlink="http://www.w3.org/1999/xlink" x="0px" y="0px"
	 viewBox="0 0 576 576" style="enable-background:new 0 0 576 576;" xml:space="preserve">
<style type="text/css">
	.st0{fill:#FFFFFF;}
</style>
<g>
	<path class="st0" d="M12.8,287.9c2.3,3.3,3.7,6.1,5.8,8.3c29.5,29.7,59.1,59.2,88.7,88.8c56.4,56.5,112.8,113,169.1,169.5
		c4.8,4.8,6.9,4.9,12.6,1.3c1.5-0.9,2.9-2.1,4.1-3.3c7-6.9,14-13.7,21-20.7c78.2-78.3,156.4-156.7,234.7-235
		c5.8-5.8,6.8-8.8,0.4-16.7c-1-1.2-2.2-2.3-3.3-3.5c-39.1-39.1-78.3-78.3-117.4-117.4C384.1,114.6,339.7,70,295.2,25.5
		c-10.5-10.5-12.4-10.3-23,0.3c-38.6,38.6-77.2,77.1-115.7,115.8c-27.7,27.8-55.2,55.8-82.9,83.6C55.5,243.3,37.1,261,19,279.1
		C16.7,281.4,15.1,284.5,12.8,287.9z"/>
	<path d="M12.8,287.9c2.3-3.4,3.9-6.5,6.2-8.9c18.1-18,36.5-35.8,54.6-53.9c27.7-27.8,55.2-55.8,82.9-83.6
		c38.5-38.6,77.1-77.2,115.7-115.8c10.6-10.6,12.5-10.7,23-0.3c44.5,44.5,88.9,89,133.3,133.6c39.1,39.2,78.3,78.3,117.4,117.4
		c1.1,1.1,2.3,2.2,3.3,3.5c6.4,7.9,5.5,10.9-0.4,16.7c-78.3,78.2-156.5,156.6-234.7,235c-6.9,6.9-13.9,13.8-21,20.7
		c-1.3,1.2-2.6,2.4-4.1,3.3c-5.8,3.6-7.9,3.4-12.6-1.3c-56.3-56.4-112.7-112.9-169-169.3c-29.6-29.6-59.2-59.2-88.7-88.8
		C16.6,294,15.1,291.2,12.8,287.9z M26.3,288.2c1.3,1.5,2,2.3,2.8,3.1c44.9,44.9,89.8,89.9,134.6,134.8
		c38.6,38.7,77.3,77.4,115.8,116.1c3,3,5,3.6,8.3,0.3c83.5-83.7,167.1-167.4,250.7-251c0.8-0.8,1.4-1.8,2.5-3.3
		C369.3,288.2,198.3,288.2,26.3,288.2z M131.8,180c0.3,0.3,0.5,0.7,0.8,1c0.8-0.4,1.6-0.8,2.3-1.2c24.4-13.9,48.9-27.7,73.3-41.7
		c3.5-2,6-2.5,9.8,0c12.8,8.3,26,16,38.9,24.1c2.5,1.5,4.1,1.5,6.4-0.1c24.6-15.9,49.3-31.5,73.8-47.5c3.7-2.4,5.7-1.7,8.4,1
		c18.1,18.3,36.3,36.5,54.5,54.7c18.5,18.6,37.1,37.1,55.6,55.7c2.7,2.7,5.9,5.4,9.7,3.7c2.7-1.2,5.4-3.9,6.7-6.7
		c1.8-3.8-1-7-3.7-9.7C408.6,153.5,349,93.8,289.3,34c-5.6-5.6-5.8-5.5-11.5,0.1c-37.5,37.6-75,75.2-112.6,112.7
		C154.3,158.1,143,169,131.8,180z"/>
	<path class="st0" d="M131.8,180c11.2-11,22.5-21.9,33.6-33C203,109.5,240.5,71.9,278,34.3c5.7-5.7,5.9-5.7,11.5-0.1
		c59.7,59.8,119.3,119.5,179,179.3c2.7,2.7,5.5,5.8,3.7,9.7c-1.3,2.7-4,5.4-6.7,6.7c-3.8,1.7-6.9-1-9.7-3.7
		c-18.5-18.6-37.1-37.1-55.6-55.7c-18.2-18.2-36.4-36.4-54.5-54.7c-2.8-2.8-4.7-3.5-8.4-1c-24.5,16-49.2,31.6-73.8,47.5
		c-2.4,1.5-4,1.6-6.4,0.1c-12.9-8.1-26.1-15.8-38.9-24.1c-3.8-2.5-6.4-2-9.8,0c-24.4,14-48.9,27.8-73.3,41.7
		c-0.8,0.4-1.6,0.8-2.3,1.2C132.4,180.6,132.1,180.3,131.8,180z"/>
</g>
<g>
	<circle cx="283.2" cy="390.4" r="73.1"/>
	<circle class="st0" cx="284.4" cy="355.1" r="9"/>
	<polygon class="st0" points="265.6,369.8 265.6,376.3 275.8,376.3 275.8,423.1 265.6,423.1 265.6,430.5 301.9,430.5 301.9,423.8 
		293.3,423.8 293.3,369.8 	"/>
</g>
</svg>
